<svg width="20" height="20" viewBox="0 0 20 20" fill="none" xmlns="http://www.w3.org/2000/svg">
<path d="M17.8111 18.0966C14.7507 20.5949 5.19497 20.5949 2.19707 18.0966C-0.863285 15.5984 -0.55101 4.91841 2.19707 2.10789C4.94514 -0.70263 15.063 -0.70263 17.8111 2.10789C20.5592 4.91841 20.8714 15.5984 17.8111 18.0966Z" fill="#005FEC"/>
<path opacity="0.1" d="M10.0666 13.7544C7.3185 15.9403 4.25815 17.0646 1.38519 17.127C-0.738339 13.5045 -0.301128 4.69826 2.19712 2.13756C4.44554 -0.173301 11.5031 -0.610512 15.5627 0.825972C16.562 4.94809 14.501 10.1944 10.0666 13.7544Z" fill="white"/>
<path d="M8.56736 15.5656C8.13015 15.5656 7.69298 15.3782 7.44315 15.0035L3.94563 10.5066C3.44598 9.88209 3.57091 9.00771 4.19546 8.50805C4.82001 8.00839 5.69439 8.13333 6.19405 8.75788L8.56736 11.8182L13.8137 5.01053C14.3133 4.38598 15.1877 4.26104 15.8123 4.7607C16.4368 5.26036 16.5618 6.13474 16.0621 6.75929L9.69157 15.0035C9.37929 15.3158 9.00457 15.5656 8.56736 15.5656Z" fill="white"/>
</svg>
