<svg width="10" height="10" viewBox="0 0 10 10" fill="none" xmlns="http://www.w3.org/2000/svg">
<path d="M9.5633 0.193626C9.11205 -0.0536942 8.60874 0.42328 8.31369 0.705931C7.63684 1.37723 7.0641 2.15452 6.42191 2.86115C5.71032 3.63844 5.0508 4.41573 4.32186 5.17538C3.90532 5.59936 3.45407 6.05867 3.17638 6.58864C2.55157 5.97031 2.01354 5.29901 1.31931 4.75141C0.815989 4.36276 -0.0170889 4.08011 0.000266917 5.01639C0.0349785 6.23535 1.09368 7.54261 1.87469 8.37287C2.20445 8.72619 2.63835 9.09717 3.14166 9.11483C3.74912 9.15016 4.37392 8.40821 4.7384 8.00189C5.38059 7.29527 5.90126 6.50028 6.49133 5.77602C7.25498 4.82207 8.03599 3.88576 8.78229 2.91414C9.2509 2.31351 10.7261 0.829562 9.5633 0.193626ZM0.763893 4.94573C0.746537 4.94573 0.729181 4.94573 0.69447 4.96337C0.625047 4.94573 0.572979 4.92803 0.503556 4.8927C0.555624 4.85737 0.642403 4.87504 0.763893 4.94573Z" fill="#005FEC"/>
</svg>
