<svg width="113" height="35" fill="none" xmlns="http://www.w3.org/2000/svg"><g clip-path="url(#clip0)"><path d="M32.14 24.722c-.175-.425-.34-.872-.516-1.254l-.813-1.82-.033-.033c-2.418-5.232-5.002-10.552-7.739-15.784l-.11-.218c-.274-.512-.55-1.08-.835-1.602-.352-.622-.693-1.287-1.253-1.919a5.82 5.82 0 00-2.014-1.56 5.867 5.867 0 00-4.986 0 5.82 5.82 0 00-2.014 1.56c-.517.632-.901 1.297-1.253 1.919-.275.566-.55 1.122-.835 1.635l-.11.218c-2.693 5.232-5.32 10.552-7.739 15.784l-.066.065c-.242.567-.527 1.156-.802 1.788-.176.382-.352.796-.528 1.254a7.355 7.355 0 001.064 7.269A7.468 7.468 0 004.61 34.32a7.53 7.53 0 003.799.496 9.264 9.264 0 003.495-1.2c1.43-.795 2.803-1.95 4.342-3.618 1.539 1.668 2.946 2.823 4.342 3.63a9.269 9.269 0 004.419 1.253 7.5 7.5 0 004.91-1.8 7.385 7.385 0 002.51-4.555 6.425 6.425 0 00-.286-3.815v.01zm-15.784 1.81c-1.89-2.399-3.122-4.6-3.54-6.486a5.624 5.624 0 01-.11-2.137 3.377 3.377 0 01.572-1.46c.66-.95 1.814-1.538 3.078-1.538a3.66 3.66 0 011.733.378c.537.267 1 .661 1.345 1.148.286.436.494.916.56 1.472.11.632.066 1.363-.11 2.137-.417 1.853-1.648 4.076-3.528 6.485zm14.004 1.613a5.166 5.166 0 01-1.044 2.465 5.228 5.228 0 01-2.144 1.623c-.835.348-1.758.446-2.66.348a6.92 6.92 0 01-2.66-.915 17.151 17.151 0 01-3.99-3.38c2.308-2.834 3.704-5.417 4.232-7.717a8.48 8.48 0 00.176-2.976 6 6 0 00-.945-2.398 5.879 5.879 0 00-2.156-1.854 5.932 5.932 0 00-2.78-.632c-2.034 0-3.847.938-4.947 2.475a5.619 5.619 0 00-.934 2.409c-.143.916-.11 1.93.176 2.976.528 2.3 1.957 4.916 4.232 7.74a15.717 15.717 0 01-3.99 3.4 6.955 6.955 0 01-2.66.905 5.265 5.265 0 01-3.844-1.026 5.18 5.18 0 01-2.004-3.41c-.11-.873-.033-1.745.319-2.726.11-.349.274-.697.45-1.112.242-.566.528-1.155.803-1.744l.044-.076a355.417 355.417 0 017.661-15.708l.11-.218c.275-.523.55-1.08.836-1.602.285-.556.593-1.09.989-1.526.342-.406.77-.732 1.254-.956a3.675 3.675 0 014.34.956c.386.436.704.97.99 1.526.275.523.55 1.09.836 1.602l.11.218a430.503 430.503 0 017.694 15.708l.033.033c.286.566.528 1.199.803 1.744.175.425.351.763.461 1.123.21.98.319 1.853.21 2.725zm15.301-1.853a5.557 5.557 0 01-2.4-.507 5.511 5.511 0 01-1.942-1.488 7.104 7.104 0 01-1.758-4.884 7.55 7.55 0 011.824-4.992 5.822 5.822 0 012.016-1.507 5.867 5.867 0 012.47-.52 4.759 4.759 0 012.306.524 4.714 4.714 0 011.76 1.568l.11-1.711h3.21v13.168h-3.22l-.11-1.919a4.953 4.953 0 01-1.836 1.684 5.002 5.002 0 01-2.43.584zm.836-3.14c.637 0 1.198-.174 1.726-.49.483-.35.879-.807 1.187-1.363.275-.556.417-1.22.417-1.962a3.701 3.701 0 00-.366-1.869 3.738 3.738 0 00-1.25-1.445 3.263 3.263 0 00-3.429 0 4.1 4.1 0 00-1.187 1.363 4.34 4.34 0 00-.418 1.962 3.7 3.7 0 00.367 1.868c.283.581.714 1.08 1.249 1.446.517.316 1.077.49 1.704.49zm12.256-13.93c0 .38-.066.73-.242 1.013a2.054 2.054 0 01-.736.698 2.07 2.07 0 01-1.011.24c-.352 0-.704-.066-1.023-.24a2.016 2.016 0 01-.736-.698 1.97 1.97 0 01-.242-1.014c0-.392.077-.741.242-1.014.176-.327.428-.523.736-.697.32-.175.66-.251 1.023-.251a2.036 2.036 0 011.758.938c.16.317.24.67.231 1.024zm-3.737 16.677V12.753h3.495v13.168h-3.506l.01-.022zm12.839-9.701v.043c-.165-.076-.385-.109-.55-.142-.22-.043-.396-.043-.604-.043-.979 0-1.715.283-2.199.872-.527.6-.77 1.439-.77 2.518v6.464h-3.506V12.742h3.22l.11 1.995c.352-.698.77-1.221 1.364-1.613a3.429 3.429 0 011.99-.545c.252 0 .494.021.703.065.11.033.176.033.242.065v3.489zm1.407 9.701V7.346h3.495v7.086a5.533 5.533 0 011.76-1.505 5.56 5.56 0 013.59-.436 5.525 5.525 0 013.092 1.864 7.104 7.104 0 011.76 4.895 7.549 7.549 0 01-1.826 4.992 5.822 5.822 0 01-2.015 1.508 5.868 5.868 0 01-2.47.52 4.759 4.759 0 01-2.306-.525 4.715 4.715 0 01-1.76-1.568l-.11 1.711-3.21.033v-.022zm6.76-2.747c.627 0 1.187-.174 1.715-.49a4.1 4.1 0 001.187-1.363c.286-.556.418-1.22.418-1.962 0-.73-.132-1.395-.418-1.951a4.097 4.097 0 00-1.187-1.363 3.263 3.263 0 00-3.43 0c-.494.349-.88.807-1.198 1.363a4.34 4.34 0 00-.418 1.962 3.7 3.7 0 00.367 1.868 3.73 3.73 0 001.25 1.446c.516.316 1.076.49 1.714.49zm8.255 2.758V12.742h3.221l.11 1.711a4.338 4.338 0 011.663-1.555 4.383 4.383 0 012.228-.505 4.534 4.534 0 012.504.702 4.48 4.48 0 011.695 1.958c.385.829.594 1.853.594 2.998v7.892h-3.507v-7.434c0-.916-.209-1.636-.626-2.17-.418-.523-.99-.806-1.715-.806-.528 0-.99.109-1.396.349a2.73 2.73 0 00-.945 1.013c-.245.452-.366.96-.352 1.472v7.543h-3.474zm13.763 0V7.335h3.506v7.086a5.122 5.122 0 011.805-1.51 5.162 5.162 0 012.295-.55 5.558 5.558 0 012.401.506 5.514 5.514 0 011.941 1.488 7.127 7.127 0 011.748 4.884 7.537 7.537 0 01-1.825 4.992 5.813 5.813 0 01-2.015 1.508 5.87 5.87 0 01-2.47.52 4.757 4.757 0 01-2.306-.525 4.716 4.716 0 01-1.761-1.568l-.099 1.711-3.22.033zm6.793-2.758a3.21 3.21 0 001.715-.49c.494-.35.879-.807 1.198-1.363.275-.556.417-1.22.417-1.962a3.702 3.702 0 00-.366-1.869 3.747 3.747 0 00-1.249-1.445 3.265 3.265 0 00-3.43 0 4.099 4.099 0 00-1.187 1.363 3.927 3.927 0 00-.418 1.962 3.702 3.702 0 00.367 1.868c.283.581.714 1.08 1.249 1.446.517.316 1.044.49 1.704.49z" fill="#FF385C"/></g><defs><clipPath id="clip0"><path fill="#fff" d="M0 0h112.121v34.882H0z"/></clipPath></defs></svg>