<svg width="100" height="31" fill="none" xmlns="http://www.w3.org/2000/svg"><g clip-path="url(#clip0)"><path d="M74.45 29.496l8.312-9.206-8.312-9.206h8.77l4.116 4.472 3.964-4.472h8.464l-8.272 9.168 8.385 9.244h-8.805l-4.08-4.51-4.04 4.51H74.45zm0-22.54h-9.413v4.128h9.413v6.22h-9.413v5.71h9.413v6.482H58.118V.492H74.45v6.464z" fill="#F60"/><path d="M51.228.492v11.87h-.076c-1.525-1.729-3.43-2.33-5.642-2.33-4.53 0-7.941 3.036-9.139 7.049-1.366-4.422-4.888-7.131-10.112-7.131-4.241 0-7.59 1.877-9.339 4.935v-3.801H8.152V6.957h9.569V.492H.337v29.004h7.815V17.304h7.79a11.403 11.403 0 00-.356 2.866c0 6.05 4.69 10.296 10.673 10.296 5.033 0 8.349-2.329 10.103-6.575h-6.698c-.906 1.276-1.593 1.655-3.405 1.655-2.1 0-3.91-1.807-3.91-3.948h13.638c.591 4.806 4.389 8.95 9.6 8.95a6.703 6.703 0 005.565-2.93h.076v1.877h6.89V.492h-6.89zM22.566 17.39c.434-1.842 1.884-3.046 3.694-3.046 1.991 0 3.367 1.167 3.73 3.046h-7.424zm24.481 7.69c-2.54 0-4.118-2.333-4.118-4.768 0-2.604 1.373-5.107 4.118-5.107 2.847 0 3.98 2.503 3.98 5.107 0 2.468-1.201 4.768-3.98 4.768z" fill="#652C8F"/></g><defs><clipPath id="clip0"><path fill="#fff" transform="translate(.337 .492)" d="M0 0h99.663v29.899H0z"/></clipPath></defs></svg>