<svg width="105" height="35" fill="none" xmlns="http://www.w3.org/2000/svg"><g clip-path="url(#clip0)"><path d="M44.761 17.889c0 4.841-3.843 8.41-8.56 8.41-4.717 0-8.56-3.569-8.56-8.41 0-4.877 3.843-8.41 8.56-8.41 4.717 0 8.56 3.534 8.56 8.41zm-3.747 0c0-3.026-2.227-5.096-4.813-5.096-2.585 0-4.813 2.07-4.813 5.096 0 2.995 2.228 5.095 4.813 5.095 2.586 0 4.813-2.104 4.813-5.096z" fill="#EA4335"/><path d="M63.228 17.889c0 4.841-3.843 8.41-8.56 8.41-4.717 0-8.56-3.569-8.56-8.41 0-4.873 3.843-8.41 8.56-8.41 4.717 0 8.56 3.534 8.56 8.41zm-3.747 0c0-3.026-2.227-5.096-4.813-5.096-2.585 0-4.813 2.07-4.813 5.096 0 2.995 2.228 5.095 4.813 5.095 2.586 0 4.813-2.104 4.813-5.096z" fill="#FBBC05"/><path d="M80.926 9.987v15.098c0 6.21-3.716 8.747-8.11 8.747-4.136 0-6.625-2.726-7.564-4.956l3.263-1.338c.58 1.369 2.004 2.984 4.297 2.984 2.812 0 4.555-1.71 4.555-4.93v-1.209h-.13c-.84 1.02-2.455 1.911-4.494 1.911-4.267 0-8.176-3.662-8.176-8.375 0-4.747 3.91-8.44 8.176-8.44 2.035 0 3.65.89 4.493 1.88h.131V9.991h3.559v-.004zm-3.293 7.932c0-2.961-2.005-5.126-4.555-5.126-2.586 0-4.752 2.165-4.752 5.126 0 2.93 2.166 5.065 4.752 5.065 2.55 0 4.555-2.134 4.555-5.065z" fill="#4285F4"/><path d="M86.793 1.137v24.645h-3.655V1.137h3.655z" fill="#34A853"/><path d="M101.036 20.656l2.909 1.911c-.939 1.369-3.201 3.727-7.11 3.727-4.848 0-8.468-3.693-8.468-8.41 0-5 3.65-8.409 8.048-8.409 4.429 0 6.595 3.473 7.303 5.35l.388.955-11.407 4.656c.873 1.688 2.231 2.548 4.136 2.548 1.908 0 3.231-.925 4.201-2.328zm-8.953-3.025l7.626-3.12c-.42-1.051-1.682-1.783-3.167-1.783-1.904 0-4.555 1.657-4.459 4.903z" fill="#EA4335"/><path d="M13.806 15.7v-3.567h12.2c.12.622.18 1.357.18 2.154 0 2.676-.742 5.986-3.135 8.345-2.327 2.388-5.301 3.662-9.24 3.662-7.303 0-13.443-5.861-13.443-13.058C.368 6.04 6.508.178 13.81.178c4.04 0 6.918 1.562 9.08 3.598l-2.555 2.518c-1.55-1.433-3.65-2.548-6.529-2.548-5.332 0-9.503 4.235-9.503 9.49s4.17 9.49 9.503 9.49c3.459 0 5.429-1.368 6.69-2.612 1.024-1.008 1.697-2.45 1.963-4.417l-8.653.004z" fill="#4285F4"/></g><defs><clipPath id="clip0"><path fill="#fff" transform="translate(.229)" d="M0 0h104.646v34.882H0z"/></clipPath></defs></svg>