<svg width="106" height="31" fill="none" xmlns="http://www.w3.org/2000/svg"><g clip-path="url(#clip0)"><path d="M12.184 5.44v8.434H4.5V5.441H.852v20.132H4.5v-8.16h7.684v8.16h3.649V5.44h-3.649zm15.325 13.625c0 .807-.319 1.58-.884 2.151a3.006 3.006 0 01-2.135.891c-.8 0-1.568-.32-2.134-.89a3.054 3.054 0 01-.884-2.152v-8.623h-3.46v8.623c0 1.73.681 3.39 1.895 4.613a6.447 6.447 0 004.577 1.911 6.446 6.446 0 004.577-1.91 6.55 6.55 0 001.896-4.614v-8.623h-3.448v8.623zm25.639-7.735c0-1.767 1.16-2.327 2.431-2.327 1.025 0 2.378.785 3.263 1.738l2.266-2.691c-1.131-1.543-3.427-2.61-5.305-2.61-3.754 0-6.47 2.217-6.47 5.89 0 6.816 8.266 4.654 8.266 8.468 0 1.177-1.133 2.217-2.43 2.217-2.047 0-2.71-1.01-3.65-2.076l-2.516 2.636c1.609 1.99 3.593 3.001 5.97 3.001 3.566 0 6.435-2.243 6.435-5.749 0-7.567-8.265-5.216-8.265-8.497m51.138 11.027c-2.045 0-2.626-.892-2.626-2.258v-6.044h3.178v-3.063h-3.178V6.95l-3.509 1.587V20.85c0 3.149 2.156 4.736 5.112 4.736a7.03 7.03 0 001.384-.111l.856-3.177c-.386.027-.829.054-1.217.054M40.68 10.543c-1.714 0-2.91.501-4.066 1.645V5.562h-3.466v12.282c0 4.598 3.298 7.747 7.003 7.747 4.112 0 7.728-3.205 7.728-7.522 0-4.263-3.329-7.524-7.198-7.524v-.002zm-.02 11.533a3.91 3.91 0 01-2.186-.668 3.957 3.957 0 01-1.448-1.78 3.992 3.992 0 01.852-4.319 3.904 3.904 0 014.286-.86 3.94 3.94 0 011.765 1.461 3.986 3.986 0 01-.49 5.005 3.917 3.917 0 01-2.78 1.16zm37.654-4.191c0-4.324-3.609-7.522-7.727-7.522-3.706 0-7.004 3.15-7.004 7.747V30.4h3.466v-6.636c1.155 1.142 2.353 1.645 4.065 1.645 3.87 0 7.198-3.26 7.198-7.524h.002zm-3.282-.043c0 .784-.23 1.55-.662 2.202a3.94 3.94 0 01-1.765 1.46 3.903 3.903 0 01-4.286-.86 3.993 3.993 0 01-.852-4.32 3.958 3.958 0 011.448-1.778 3.91 3.91 0 014.965.493 3.98 3.98 0 011.152 2.803z" fill="#33475B"/><path d="M89.511 10.194v-3.51c.46-.217.85-.56 1.124-.992a2.72 2.72 0 00.422-1.444v-.081c0-.717-.282-1.404-.785-1.911a2.67 2.67 0 00-1.896-.792h-.08a2.67 2.67 0 00-1.896.792 2.714 2.714 0 00-.786 1.911v.081a2.73 2.73 0 00.423 1.444c.274.431.663.775 1.123.992v3.51a7.565 7.565 0 00-3.61 1.601L74 4.3c.068-.248.104-.503.107-.759a3.062 3.062 0 00-.506-1.693A3.026 3.026 0 0072.248.723a2.999 2.999 0 00-3.293.655 3.067 3.067 0 00-.66 3.318 3.04 3.04 0 001.111 1.368c.496.335 1.08.515 1.678.515a2.97 2.97 0 001.487-.407l9.404 7.375a7.721 7.721 0 00.116 8.648l-2.86 2.882a2.437 2.437 0 00-.715-.117c-.49 0-.97.148-1.377.422a2.496 2.496 0 00-.913 1.123 2.519 2.519 0 00.538 2.724 2.463 2.463 0 002.703.542 2.48 2.48 0 001.113-.92c.273-.41.419-.894.42-1.388a2.486 2.486 0 00-.117-.72l2.83-2.853a7.57 7.57 0 006.583 1.345 7.609 7.609 0 003.051-1.616 7.685 7.685 0 002.035-2.805 7.743 7.743 0 00-.353-6.76 7.667 7.667 0 00-2.315-2.576 7.596 7.596 0 00-3.203-1.284zM88.34 21.735c-.775 0-1.53-.232-2.174-.666a3.939 3.939 0 01-1.44-1.772 3.975 3.975 0 01.85-4.298 3.887 3.887 0 014.265-.855 3.921 3.921 0 011.756 1.453 3.968 3.968 0 01-.486 4.98 3.9 3.9 0 01-2.768 1.156" fill="#FF7A59"/></g><defs><clipPath id="clip0"><path fill="#fff" transform="translate(.852 .492)" d="M0 0h104.646v29.899H0z"/></clipPath></defs></svg>