<svg width="153" height="33" fill="none" xmlns="http://www.w3.org/2000/svg"><g clip-path="url(#clip0)"><path d="M54.254 18.902l-.906 2.56h-.075a18.165 18.165 0 00-.88-2.51L47.535 6.774H42.78v19.41h3.145V14.205c0-.753 0-1.607-.025-2.661-.025-.527-.075-.93-.1-1.23h.075c.15.753.327 1.305.453 1.657l5.838 14.161h2.214l5.788-14.287c.126-.326.251-.98.377-1.531h.076a180.963 180.963 0 00-.151 3.49v12.303h3.346V6.724h-4.58l-4.982 12.178zm12.733-6.704h3.271v13.91h-3.271v-13.91zm1.66-5.876c-.553 0-1.006.201-1.383.553a1.78 1.78 0 00-.58 1.355c0 .528.202.98.58 1.331.377.352.83.527 1.384.527.553 0 1.031-.2 1.384-.527.377-.351.578-.803.578-1.33 0-.528-.2-.98-.578-1.356-.328-.352-.806-.553-1.384-.553zm13.211 5.75a9.14 9.14 0 00-1.837-.2c-1.484 0-2.843.326-3.975.979-1.133.652-2.039 1.556-2.617 2.686-.604 1.155-.906 2.486-.906 4.018 0 1.33.302 2.51.88 3.59.58 1.055 1.384 1.908 2.467 2.486 1.031.577 2.24.879 3.598.879 1.56 0 2.894-.327 3.95-.93l.026-.024v-3.014l-.126.101a5.629 5.629 0 01-1.585.829c-.58.2-1.108.3-1.56.3-1.309 0-2.34-.376-3.07-1.204-.755-.804-1.133-1.909-1.133-3.29 0-1.43.378-2.56 1.158-3.39.78-.828 1.811-1.255 3.07-1.255 1.056 0 2.139.352 3.12 1.055l.126.1V12.6l-.025-.025c-.428-.175-.906-.376-1.56-.502zm10.795-.1c-.805 0-1.56.25-2.214.778-.553.452-.93 1.105-1.258 1.883h-.025v-2.435h-3.271v13.91h3.27v-7.106c0-1.205.252-2.21.806-2.938.554-.753 1.258-1.13 2.114-1.13.302 0 .604.076.981.126.352.1.604.2.78.326l.126.1v-3.263l-.076-.025c-.226-.151-.679-.226-1.233-.226zm8.908-.076c-2.29 0-4.127.678-5.41 2.009-1.308 1.33-1.937 3.164-1.937 5.474 0 2.16.654 3.917 1.912 5.197 1.258 1.256 2.97 1.909 5.108 1.909 2.24 0 4.026-.678 5.31-2.034 1.308-1.356 1.937-3.164 1.937-5.399 0-2.21-.604-3.967-1.837-5.247-1.182-1.281-2.919-1.909-5.083-1.909zm2.617 10.697c-.604.778-1.56 1.155-2.742 1.155-1.183 0-2.14-.377-2.819-1.206-.68-.778-1.006-1.908-1.006-3.339 0-1.481.352-2.611 1.006-3.415.68-.803 1.611-1.205 2.793-1.205 1.158 0 2.064.377 2.718 1.155.654.778 1.007 1.908 1.007 3.39-.051 1.506-.328 2.686-.957 3.465zm11.601-4.62c-1.032-.427-1.686-.754-1.988-1.03-.252-.25-.378-.602-.378-1.054 0-.377.151-.754.529-1.005.377-.25.805-.376 1.434-.376.554 0 1.132.1 1.686.25.554.151 1.057.377 1.459.679l.126.1v-3.063l-.075-.025a9.115 9.115 0 00-1.485-.427c-.604-.1-1.157-.15-1.61-.15-1.56 0-2.844.376-3.85 1.204-1.007.779-1.485 1.833-1.485 3.064 0 .653.101 1.23.327 1.707.227.477.554.93 1.007 1.306.453.351 1.107.753 2.013 1.13.755.326 1.333.577 1.686.778.352.201.578.427.755.603.125.2.201.452.201.778 0 .93-.705 1.381-2.139 1.381-.554 0-1.132-.1-1.812-.326a7.02 7.02 0 01-1.837-.93l-.125-.1v3.189l.075.025c.478.226 1.057.377 1.761.552.705.126 1.334.226 1.888.226 1.686 0 3.07-.376 4.051-1.205 1.007-.803 1.535-1.833 1.535-3.163 0-.93-.252-1.758-.805-2.386a10.218 10.218 0 00-2.944-1.732zm12.38-6.077c-2.29 0-4.127.678-5.41 2.009-1.283 1.33-1.938 3.164-1.938 5.474 0 2.16.655 3.917 1.913 5.197 1.258 1.256 2.969 1.909 5.108 1.909 2.239 0 4.026-.678 5.309-2.034 1.309-1.356 1.938-3.164 1.938-5.399 0-2.21-.604-3.967-1.837-5.247-1.183-1.281-2.919-1.909-5.083-1.909zm2.592 10.697c-.604.778-1.56 1.155-2.743 1.155-1.208 0-2.139-.377-2.818-1.206-.68-.778-1.007-1.908-1.007-3.339 0-1.481.352-2.611 1.007-3.415.679-.803 1.61-1.205 2.793-1.205 1.132 0 2.063.377 2.717 1.155.655.778 1.007 1.908 1.007 3.39 0 1.506-.327 2.686-.956 3.465zm21.816-7.709v-2.686h-3.296V8.08l-.101.025-3.12.929-.075.025v3.139h-4.932V10.44c0-.803.201-1.431.553-1.833.352-.402.881-.603 1.535-.603.453 0 .931.1 1.46.327l.125.075V5.57l-.075-.025c-.453-.15-1.057-.251-1.837-.251-.981 0-1.837.226-2.617.602a4.363 4.363 0 00-1.787 1.783c-.427.753-.654 1.607-.654 2.586v1.934h-2.29v2.661h2.29v11.249h3.297V14.884h4.932v7.156c0 2.938 1.384 4.42 4.152 4.42.452 0 .931-.076 1.384-.151.478-.1.83-.226 1.031-.326l.025-.026v-2.686l-.125.1a2.137 2.137 0 01-.68.301c-.251.076-.478.1-.654.1-.654 0-1.107-.15-1.434-.526-.302-.352-.453-.93-.453-1.783v-6.579h3.346z" fill="#737373"/><path d="M.606.246h15.425v15.392H.606V.246z" fill="#F25022"/><path d="M17.642.246h15.425v15.392H17.642V.246z" fill="#7FBA00"/><path d="M.606 17.245h15.425v15.391H.606V17.245z" fill="#00A4EF"/><path d="M17.642 17.245h15.425v15.391H17.642V17.245z" fill="#FFB900"/></g><defs><clipPath id="clip0"><path fill="#fff" transform="translate(.606 .246)" d="M0 0h151.987v32.391H0z"/></clipPath></defs></svg>