<svg width="139" height="33" fill="none" xmlns="http://www.w3.org/2000/svg"><g clip-path="url(#clip0)"><path opacity=".8" d="M49.534 11.767v1.835h.056c.661-.982 1.758-2.14 4.188-2.14 1.891 0 3.342.963 3.963 2.417h.056c.531-.736 1.14-1.292 1.822-1.686.807-.467 1.706-.735 2.837-.735 2.56 0 4.826 1.665 4.826 5.864v7.964H63.38V17.88c0-2.128-.769-3.359-2.366-3.359-1.17 0-2.02.74-2.345 1.649-.112.313-.164.74-.164 1.096v8.025h-3.902v-7.712c0-1.807-.739-3.062-2.314-3.062-1.26 0-2.05.934-2.375 1.734-.138.341-.181.735-.181 1.105v7.931h-3.907v-13.52h3.708zm37.892 0v2.55h.108c.716-1.95 2.417-2.855 3.911-2.855.376 0 .583.029.885.085v3.542c-.358-.049-.69-.098-1.157-.098-1.692 0-2.87.926-3.169 2.376-.064.3-.086.625-.086 1v6.923h-4.006V11.767h3.514zm10.344-4.48v4.256h3.384v3.444H97.77v5.08c0 1.645.445 2.442 1.766 2.442.621 0 1.079-.074 1.476-.167l.052 2.855c-.531.187-1.662.39-2.81.39-1.352 0-2.479-.443-3.165-1.13-.786-.783-1.148-2.066-1.148-3.894V7.287h3.829zm-54.664 18h-3.885v-18h3.885v18zm-10.361-4.83a2.4 2.4 0 01-.095.732c-.302.938-1.334 1.73-2.62 1.73-1.076 0-1.93-.573-1.93-1.787 0-1.856 2.176-2.372 4.65-2.36v1.686h-.005zm3.881-3.236c0-3.066-1.39-5.759-6.091-5.759-2.414 0-4.33.638-5.375 1.206l.764 2.461c.954-.568 2.478-1.035 3.92-1.035 2.387-.004 2.776 1.27 2.776 2.087v.195c-5.202-.008-8.488 1.685-8.488 5.137 0 2.108 1.671 4.082 4.58 4.082 1.792 0 3.286-.67 4.184-1.746h.086s.596 2.335 3.869 1.441c-.173-.974-.23-2.01-.23-3.257v-4.812h.005zM4.614 7.287c.402 1.905 1.542 7.436 1.542 7.436.479 2.274.92 4.658 1.252 6.543h.06c.324-2.002.833-3.899 1.377-6.246l1.921-7.733h4.253l1.796 7.932c.47 2.205.846 3.906 1.144 5.957h.056c.324-2.07.747-3.841 1.209-6.108l1.727-7.78h4.08l-5.056 17.998c-3.22.662-4.455-.556-4.896-2.49-.44-1.936-1.304-5.62-1.304-5.62-.444-2.018-.79-3.44-1.031-5.51h-.06c-.346 2.05-.709 3.488-1.244 5.506L9.32 25.29c-3.29.618-4.43-.296-5.06-2.777C3.717 20.387.323 7.29.323 7.29h4.291v-.004zm72.822 13.17a2.4 2.4 0 01-.095.732c-.302.938-1.334 1.73-2.62 1.73-1.075 0-1.93-.573-1.93-1.787 0-1.856 2.176-2.372 4.65-2.36v1.686h-.005zm3.881-3.236c0-3.066-1.39-5.759-6.091-5.759-2.414 0-4.33.638-5.375 1.206l.764 2.461c.954-.568 2.478-1.035 3.92-1.035 2.383-.004 2.776 1.27 2.776 2.087v.195c-5.198-.008-8.483 1.685-8.483 5.137 0 2.108 1.675 4.082 4.58 4.082 1.787 0 3.285-.67 4.18-1.746h.09s.596 2.335 3.868 1.441c-.173-.974-.229-2.01-.229-3.257v-4.812z" fill="#041E42"/><path d="M116.905 19.087c.383.658.357 1.391-.052 1.726l-7.066 4.881c-.736.42-1.837-.089-2.461-1.153-.629-1.069-.517-2.26.219-2.68l7.823-3.588c.491-.186 1.154.157 1.537.814zm9.299 0c.387-.657 1.046-.996 1.536-.818l7.828 3.588c.736.42.843 1.61.219 2.68-.628 1.064-1.734 1.569-2.465 1.153l-7.066-4.881c-.405-.33-.435-1.069-.052-1.722zm-4.652 2.646c.771 0 1.403.39 1.489.904l.762 8.473c0 .84-.994 1.526-2.246 1.526-1.248 0-2.247-.687-2.247-1.526l.758-8.473c.086-.513.718-.904 1.484-.904zm4.704-9.66l7.066-4.885c.731-.42 1.837.085 2.465 1.153.624 1.069.517 2.26-.219 2.68l-7.828 3.592c-.49.178-1.153-.16-1.536-.818-.383-.657-.353-1.391.052-1.722zm-10.888 2.54l-7.823-3.592c-.731-.42-.843-1.611-.219-2.68.624-1.068 1.73-1.573 2.461-1.153l7.066 4.885c.409.327.435 1.065.052 1.722s-1.046.996-1.537.818zm4.7-4.368l-.758-8.473c0-.84.994-1.526 2.247-1.526 1.252 0 2.246.687 2.246 1.526l-.762 8.473c-.086.51-.718.904-1.489.904-.766 0-1.398-.395-1.484-.904zm17.63 15.415v-.212h.194c.064 0 .107.043.107.106 0 .06-.043.106-.107.106h-.194zm-.159.386c0 .021.017.043.043.043h.082c.021 0 .043-.021.043-.043v-.241h.133l.108.254c.008.017.021.03.038.03h.099c.031 0 .052-.03.039-.06-.039-.076-.077-.157-.116-.237a.235.235 0 00.163-.238c0-.16-.133-.254-.266-.254h-.323c-.022 0-.043.021-.043.042v.704zm-.349-.352a.63.63 0 01.633-.623c.348 0 .632.276.632.623a.626.626 0 01-.632.624.627.627 0 01-.633-.624zm-.15 0c0 .424.348.772.783.772a.78.78 0 00.783-.772.78.78 0 00-.783-.771.777.777 0 00-.783.771z" fill="#FFC124"/></g><defs><clipPath id="clip0"><path fill="#fff" transform="translate(.323 .246)" d="M0 0h138.283v32.391H0z"/></clipPath></defs></svg>