<svg width="20" height="20" fill="none" xmlns="http://www.w3.org/2000/svg"><path d="M17.811 18.097c-3.06 2.498-12.616 2.498-15.614 0-3.06-2.499-2.748-13.179 0-15.99 2.748-2.81 12.866-2.81 15.614 0 2.748 2.811 3.06 13.491 0 15.99z" fill="#005FEC"/><path opacity=".1" d="M10.067 13.754c-2.748 2.186-5.809 3.31-8.682 3.373C-.738 13.505-.3 4.698 2.197 2.137 4.446-.172 11.503-.61 15.563.827c.999 4.122-1.062 9.368-5.496 12.928z" fill="#fff"/><path d="M8.567 15.566c-.437 0-.874-.188-1.124-.563l-3.497-4.496c-.5-.625-.375-1.5.25-1.999.624-.5 1.498-.375 1.998.25l2.373 3.06 5.247-6.807c.5-.625 1.374-.75 1.998-.25.625.5.75 1.374.25 1.998l-6.37 8.245c-.313.312-.687.562-1.125.562z" fill="#fff"/></svg>