<svg width="10" height="10" fill="none" xmlns="http://www.w3.org/2000/svg"><path d="M9.563.194c-.451-.248-.954.23-1.25.512-.676.671-1.249 1.449-1.891 2.155-.712.777-1.371 1.555-2.1 2.314-.417.424-.868.884-1.146 1.414-.624-.619-1.162-1.29-1.857-1.838-.503-.388-1.336-.67-1.319.265.035 1.22 1.094 2.527 1.875 3.357.33.353.763.724 1.267.742.607.035 1.232-.707 1.596-1.113.643-.707 1.163-1.502 1.753-2.226.764-.954 1.545-1.89 2.291-2.862.469-.6 1.944-2.084.781-2.72zm-8.8 4.752c-.016 0-.034 0-.069.017a.835.835 0 01-.19-.07c.052-.036.138-.018.26.053z" fill="#005FEC"/></svg>