<svg width="100" height="30" fill="none" xmlns="http://www.w3.org/2000/svg"><path d="M100 25.82a2.877 2.877 0 01-2.88 2.877H2.883A2.88 2.88 0 010 25.821V2.88A2.884 2.884 0 012.883 0H97.12A2.88 2.88 0 01100 2.88v22.94z" fill="#fff"/><path d="M100 26.993C100 28.654 98.713 30 97.12 30H2.883C1.292 30 0 28.654 0 26.993V3.01C0 1.351 1.292 0 2.883 0H97.12C98.713 0 100 1.35 100 3.011v23.982z" fill="#18216D"/><path d="M21.96 14.19c-.022-2.42 1.982-3.598 2.074-3.652-1.135-1.655-2.894-1.881-3.512-1.9-1.477-.155-2.91.885-3.663.885-.768 0-1.927-.87-3.176-.844-1.607.025-3.11.956-3.935 2.4-1.702 2.947-.433 7.277 1.198 9.659.815 1.167 1.768 2.469 3.016 2.423 1.22-.05 1.676-.777 3.15-.777 1.459 0 1.887.777 3.159.748 1.31-.02 2.134-1.172 2.922-2.349.942-1.336 1.32-2.654 1.336-2.721-.03-.01-2.543-.97-2.569-3.871zm-2.403-7.118c.656-.82 1.105-1.938.98-3.071-.95.042-2.138.657-2.822 1.46-.605.708-1.146 1.867-1.006 2.958 1.067.08 2.163-.539 2.848-1.347zm20.081 15.922h-1.706l-.934-2.936H33.75l-.89 2.936H31.2l3.218-9.996h1.987l3.233 9.996zm-2.922-4.168l-.845-2.61c-.089-.267-.257-.895-.504-1.883h-.03a78.605 78.605 0 01-.474 1.883l-.83 2.61h2.683zm11.182.476c0 1.225-.332 2.194-.998 2.905-.597.633-1.338.95-2.222.95-.955 0-1.641-.34-2.058-1.022v3.781h-1.601v-7.76c0-.77-.02-1.56-.06-2.37h1.408l.09 1.143h.03c.534-.86 1.344-1.291 2.432-1.291.85 0 1.56.335 2.128 1.008.567.673.852 1.558.852 2.655zm-1.63.058c0-.701-.159-1.28-.476-1.736a1.638 1.638 0 00-1.394-.71c-.395 0-.754.131-1.074.392a1.82 1.82 0 00-.63 1.031 2.09 2.09 0 00-.075.488v1.202c0 .523.16.966.482 1.328.322.36.74.541 1.253.541.603 0 1.073-.233 1.408-.697.337-.465.505-1.077.505-1.839zm9.92-.058c0 1.225-.333 2.194-.999 2.905-.597.633-1.337.95-2.222.95-.955 0-1.641-.34-2.058-1.022v3.781h-1.602v-7.76c0-.77-.02-1.56-.059-2.37h1.408l.09 1.143h.03c.533-.86 1.343-1.291 2.432-1.291.85 0 1.559.335 2.128 1.008.567.673.852 1.558.852 2.655zm-1.632.058c0-.701-.158-1.28-.475-1.736-.347-.474-.81-.71-1.393-.71-.395 0-.754.131-1.076.392a1.822 1.822 0 00-.63 1.031c-.048.198-.075.36-.075.488v1.202c0 .523.162.966.482 1.328.321.36.739.541 1.254.541.604 0 1.073-.233 1.408-.697.337-.465.505-1.077.505-1.839zm10.9.83c0 .851-.297 1.543-.888 2.077-.65.583-1.559.875-2.723.875-1.075 0-1.938-.208-2.588-.623l.37-1.335a4.455 4.455 0 002.314.624c.603 0 1.073-.137 1.408-.408.336-.272.505-.635.505-1.09 0-.405-.14-.746-.416-1.023-.277-.276-.735-.534-1.379-.77-1.75-.653-2.625-1.608-2.625-2.864 0-.82.309-1.491.926-2.016.618-.524 1.436-.786 2.455-.786.91 0 1.667.158 2.269.474l-.402 1.306c-.566-.307-1.206-.46-1.92-.46-.565 0-1.008.139-1.325.415a1.189 1.189 0 00-.402.906c0 .394.154.722.46.979.266.236.751.494 1.453.77.86.347 1.493.752 1.898 1.216.408.464.61 1.043.61 1.733zm5.308-3.202H69v3.5c0 .89.311 1.333.935 1.333.286 0 .523-.024.71-.074l.045 1.216c-.315.118-.73.177-1.245.177-.633 0-1.127-.193-1.484-.579-.355-.386-.533-1.033-.533-1.943v-3.633h-1.052v-1.202h1.052v-1.32L69 13.989v1.794h1.765v1.205zm7.948 2.343c0 1.108-.317 2.017-.95 2.728-.66.733-1.541 1.098-2.638 1.098-1.06 0-1.901-.351-2.53-1.052-.627-.702-.941-1.587-.941-2.654 0-1.117.324-2.032.97-2.743.65-.712 1.522-1.068 2.62-1.068 1.057 0 1.906.351 2.55 1.053.613.68.92 1.56.92 2.638zm-1.66.037c0-.66-.142-1.227-.429-1.7-.335-.573-.816-.86-1.439-.86-.641 0-1.133.287-1.468.86-.287.473-.43 1.05-.43 1.73 0 .66.143 1.228.43 1.7.346.573.83.86 1.455.86.612 0 1.092-.293 1.439-.873.294-.486.442-1.056.442-1.717zm6.867-2.173a2.777 2.777 0 00-.504-.045c-.564 0-1 .212-1.306.639-.265.375-.4.85-.4 1.423v3.782h-1.6v-4.938c0-.83-.016-1.587-.047-2.269h1.395l.058 1.38h.045c.17-.475.435-.857.8-1.143a1.936 1.936 0 011.158-.386c.148 0 .281.01.4.029l.001 1.528zm7.162 1.854c0 .287-.019.529-.059.726h-4.804c.018.712.251 1.258.697 1.633.405.335.929.503 1.572.503.71 0 1.36-.112 1.943-.34l.251 1.111c-.682.298-1.487.446-2.416.446-1.117 0-1.995-.33-2.633-.986-.637-.657-.956-1.54-.956-2.647 0-1.086.296-1.99.89-2.713.622-.77 1.463-1.156 2.52-1.156 1.04 0 1.826.386 2.36 1.156.422.611.635 1.368.635 2.267zm-1.527-.415c.011-.476-.094-.885-.311-1.231-.277-.446-.704-.669-1.275-.669-.524 0-.95.217-1.275.653a2.392 2.392 0 00-.474 1.245l3.335.002zM35.944 9.42h-.839l-.459-1.442H33.05l-.438 1.442h-.816l1.582-4.912h.976l1.59 4.912zm-1.436-2.048l-.415-1.283a19.156 19.156 0 01-.248-.925h-.015c-.051.211-.124.517-.234.925l-.408 1.283h1.32zm5.391-1.494L38.558 9.42h-.766l-1.297-3.542h.845l.606 1.873c.102.314.189.613.254.896h.022c.059-.254.146-.553.255-.896l.598-1.873h.824zm2.856 3.542l-.059-.408h-.022c-.24.329-.59.489-1.035.489-.633 0-1.086-.445-1.086-1.043 0-.874.758-1.326 2.07-1.326v-.066c0-.466-.247-.7-.736-.7-.35 0-.656.088-.925.263l-.16-.517c.328-.205.736-.307 1.217-.307.926 0 1.393.489 1.393 1.466v1.304c0 .358.015.635.051.846h-.708zm-.11-1.764c-.875 0-1.312.212-1.312.714 0 .372.226.554.54.554.4 0 .772-.306.772-.721v-.547zm2.52-2.361a.462.462 0 01-.466-.474c0-.27.21-.467.481-.467.27 0 .488.197.48.467 0 .284-.203.474-.495.474zm.409 4.125h-.788V5.878h.788V9.42zm2.185 0h-.787V4.253h.787V9.42zm3.346 0l-.059-.408h-.022c-.24.329-.59.489-1.035.489-.634 0-1.086-.445-1.086-1.043 0-.874.758-1.326 2.07-1.326v-.066c0-.466-.248-.7-.736-.7-.35 0-.656.088-.925.263l-.16-.518c.327-.204.735-.306 1.217-.306.925 0 1.392.488 1.392 1.465v1.305c0 .357.016.634.05.845h-.706zm-.11-1.764c-.875 0-1.312.212-1.312.714 0 .372.226.554.539.554.401 0 .773-.306.773-.721v-.547zm3.955 1.845c-.502 0-.873-.212-1.114-.627h-.015l-.046.546h-.67c.022-.284.029-.605.029-.954V4.253h.788v2.144h.015c.233-.394.611-.59 1.13-.59.853 0 1.45.728 1.45 1.792 0 1.1-.663 1.902-1.567 1.902zm-.16-3.077c-.453 0-.867.394-.867.94v.62c0 .488.372.89.854.89.59 0 .94-.481.94-1.246 0-.715-.366-1.204-.927-1.204zm3.678 2.996h-.786V4.253h.786V9.42zm4.285-1.581H60.39c.016.67.46 1.049 1.115 1.049.35 0 .671-.059.955-.168l.123.547c-.335.146-.729.219-1.188.219-1.109 0-1.764-.7-1.764-1.786s.671-1.902 1.675-1.902c.904 0 1.473.67 1.473 1.684.003.138-.003.262-.026.357zm-.722-.561c0-.547-.277-.933-.78-.933-.452 0-.808.393-.86.933h1.64zM67.524 9.5c-1.035 0-1.706-.773-1.706-1.822 0-1.094.685-1.874 1.765-1.874 1.02 0 1.706.736 1.706 1.816 0 1.107-.708 1.88-1.765 1.88zm.03-3.12c-.569 0-.933.531-.933 1.275 0 .73.372 1.261.925 1.261.554 0 .925-.568.925-1.276 0-.721-.364-1.26-.917-1.26zm5.966 3.04h-.786V7.385c0-.626-.24-.94-.714-.94-.466 0-.788.401-.788.868V9.42h-.786V6.89c0-.312-.009-.648-.03-1.012h.693l.037.546h.022c.21-.378.64-.62 1.122-.62.742 0 1.23.57 1.23 1.495V9.42zm5.15-2.952h-.865v1.72c0 .437.152.656.458.656.139 0 .256-.015.35-.037l.022.598a1.753 1.753 0 01-.612.088c-.62 0-.99-.343-.99-1.24V6.47h-.517v-.59h.517v-.65l.772-.233v.882h.866v.59zm4.17 2.951h-.789V7.401c0-.633-.24-.954-.714-.954-.408 0-.786.277-.786.838V9.42h-.788V4.253h.788V6.38h.015c.248-.386.605-.576 1.064-.576.75 0 1.21.582 1.21 1.509V9.42zm4.02-1.579H84.5c.015.67.458 1.049 1.115 1.049.35 0 .67-.059.954-.168l.124.547c-.335.146-.73.219-1.189.219-1.108 0-1.764-.7-1.764-1.786s.672-1.902 1.676-1.902c.903 0 1.473.67 1.473 1.684a1.53 1.53 0 01-.027.357zm-.722-.561c0-.547-.276-.933-.78-.933-.452 0-.808.393-.86.933h1.64z" fill="#fff"/></svg>