<svg width="100" height="30" fill="none" xmlns="http://www.w3.org/2000/svg"><path d="M96.296 30H3.704C1.63 30 0 28.35 0 26.25V3.75C0 1.65 1.63 0 3.704 0h92.592C98.37 0 100 1.65 100 3.75v22.5c0 2.1-1.63 3.75-3.704 3.75z" fill="#18216D"/><path d="M50.444 16.148c-1.777 0-3.185 1.334-3.185 3.186a3.162 3.162 0 003.185 3.185c1.778 0 3.185-1.333 3.185-3.185 0-1.926-1.407-3.186-3.185-3.186zm0 5.038c-.963 0-1.777-.815-1.777-1.926 0-1.112.814-1.926 1.777-1.926s1.778.74 1.778 1.926c0 1.11-.815 1.925-1.778 1.925zm-6.889-5.038c-1.777 0-3.185 1.334-3.185 3.186a3.162 3.162 0 003.185 3.185c1.778 0 3.186-1.333 3.186-3.185 0-1.926-1.408-3.186-3.186-3.186zm0 5.038c-.962 0-1.777-.815-1.777-1.926 0-1.112.815-1.926 1.777-1.926.963 0 1.778.74 1.778 1.926 0 1.11-.815 1.925-1.778 1.925zm-8.222-4.075v1.334h3.185c-.074.74-.37 1.333-.74 1.703-.445.445-1.185.963-2.445.963-2 0-3.481-1.555-3.481-3.555S33.407 14 35.333 14c1.037 0 1.852.445 2.445.963L38.74 14c-.815-.74-1.852-1.333-3.334-1.333-2.666 0-4.963 2.222-4.963 4.889 0 2.666 2.297 4.889 4.963 4.889 1.482 0 2.519-.445 3.408-1.408.889-.889 1.185-2.148 1.185-3.11 0-.297 0-.593-.074-.816h-4.593zm33.63 1.037c-.296-.74-1.037-2-2.667-2s-2.963 1.26-2.963 3.186c0 1.777 1.334 3.185 3.111 3.185 1.408 0 2.297-.889 2.593-1.408L68 20.371c-.37.518-.815.889-1.556.889-.74 0-1.185-.297-1.555-.963l4.222-1.778-.148-.37zm-4.296 1.038c0-1.186.962-1.852 1.63-1.852.518 0 1.036.296 1.184.666l-2.814 1.186zm-3.482 3.037h1.407v-9.26h-1.407v9.26zm-2.222-5.408c-.37-.37-.963-.74-1.704-.74-1.555 0-3.037 1.407-3.037 3.185 0 1.777 1.407 3.11 3.037 3.11.74 0 1.334-.37 1.63-.74h.074v.444c0 1.186-.667 1.852-1.704 1.852-.815 0-1.407-.592-1.555-1.11l-1.186.518c.37.814 1.26 1.852 2.815 1.852 1.63 0 2.963-.963 2.963-3.26v-5.63h-1.333v.52zm-1.63 4.37c-.963 0-1.778-.814-1.778-1.925 0-1.112.815-1.926 1.778-1.926.963 0 1.704.814 1.704 1.926 0 1.11-.74 1.925-1.704 1.925zm18.074-8.222h-3.333v9.26h1.407V18.74h1.926c1.556 0 3.037-1.111 3.037-2.889 0-1.778-1.481-2.889-3.037-2.889zm.074 4.445h-2v-3.186h2c1.037 0 1.63.89 1.63 1.556-.074.815-.667 1.63-1.63 1.63zM84 16.074c-1.037 0-2.074.445-2.445 1.408l1.26.518c.296-.518.74-.666 1.259-.666.74 0 1.407.444 1.481 1.185v.074c-.222-.148-.814-.37-1.407-.37-1.333 0-2.667.74-2.667 2.074 0 1.259 1.112 2.074 2.297 2.074.963 0 1.407-.445 1.777-.89h.074v.741h1.334v-3.555c-.148-1.63-1.408-2.593-2.963-2.593zm-.148 5.111c-.445 0-1.111-.222-1.111-.814 0-.741.814-.963 1.481-.963.593 0 .889.148 1.26.296-.149.889-.89 1.482-1.63 1.482zm7.777-4.888l-1.555 4H90l-1.63-4h-1.48l2.444 5.63-1.407 3.11h1.407l3.778-8.74H91.63zm-12.444 5.925h1.407v-9.259h-1.407v9.26z" fill="#fff"/><path d="M7.704 5.556c-.223.222-.297.592-.297 1.037v16.37c0 .444.148.815.37 1.037l.075.074 9.185-9.185v-.148L7.704 5.556z" fill="url(#paint0_linear)"/><path d="M20 18l-3.037-3.037v-.222L20 11.704l.074.074 3.63 2.074c1.037.593 1.037 1.556 0 2.148L20 18z" fill="url(#paint1_linear)"/><path d="M20.074 17.926l-3.111-3.111-9.26 9.259c.371.37.89.37 1.556.074l10.815-6.222z" fill="url(#paint2_linear)"/><path d="M20.074 11.704L9.259 5.556c-.667-.37-1.185-.296-1.555.074l9.259 9.185 3.111-3.11z" fill="url(#paint3_linear)"/><path opacity=".2" d="M20 17.852L9.26 23.926c-.593.37-1.112.296-1.482 0L7.704 24l.074.074c.37.296.889.37 1.481 0L20 17.852z" fill="#18216D"/><path opacity=".12" d="M7.704 23.926c-.223-.223-.297-.593-.297-1.037v.074c0 .444.148.814.37 1.037v-.074h-.073zm16-8.149L20 17.852l.074.074 3.63-2.074c.518-.297.74-.667.74-1.037 0 .37-.296.666-.74.962z" fill="#18216D"/><path opacity=".25" d="M9.26 5.63l14.443 8.222c.445.296.741.592.741.963 0-.37-.222-.741-.74-1.037L9.258 5.554c-1.037-.592-1.852-.148-1.852 1.037v.074c0-1.11.815-1.63 1.852-1.037z" fill="#fff"/><path d="M34.222 9.037c-.445.445-.963.667-1.63.667-.666 0-1.185-.222-1.63-.667-.444-.444-.666-.963-.666-1.63 0-.666.222-1.185.667-1.629.444-.444.962-.667 1.63-.667.666 0 1.184.223 1.629.667.444.444.666.963.666 1.63 0 .666-.222 1.185-.666 1.63zm-2.815-.37c.296.296.74.518 1.185.518.445 0 .89-.148 1.185-.518.297-.296.519-.74.519-1.26 0-.518-.148-.962-.519-1.259-.296-.296-.74-.518-1.185-.518-.444 0-.889.148-1.185.518a1.79 1.79 0 00-.518 1.26c0 .518.148.963.518 1.259zm4.296.963V5.185h.667l2.148 3.482V5.185h.593V9.63h-.593L36.296 6v3.63h-.593zm5.926 0h-.592V5.704h-1.26v-.519h3.037v.519h-1.259V9.63h.074zm2 0V5.185h1.334c.666 0 1.259.223 1.63.593.444.444.592.963.592 1.63a2.44 2.44 0 01-.593 1.63c-.444.444-.963.592-1.63.592H43.63zm.519-.519h.815c.518 0 .889-.148 1.185-.444.296-.296.444-.74.444-1.26 0-.518-.148-.962-.444-1.259-.297-.296-.741-.444-1.185-.444h-.815V9.11zm6.444-3.407h-2V7.11h1.852v.519h-1.852v1.407h2v.593H48V5.185h2.592v.519zm4.222-.519l-1.63 1.926 1.779 2.519h-.667l-1.482-2.074-.666.815V9.63h-.593V5.185h.593v2.297l1.926-2.297h.74zm2.149 4.445V5.185h.592v1.926h2.222V5.185h.593V9.63h-.593v-2h-2.222v2h-.592zM64 5.704h-2V7.11h1.851v.519H62v1.407h2v.593h-2.593V5.185H64v.519zm2.37 3.926h-.593V5.704h-1.259v-.519h3.037v.519h-1.26V9.63h.075zm7.037-.593c-.444.445-.963.667-1.63.667-.666 0-1.185-.222-1.63-.667-.444-.444-.666-.963-.666-1.63 0-.666.222-1.185.667-1.629.444-.444.963-.667 1.63-.667.666 0 1.185.223 1.629.667.445.444.667.963.667 1.63 0 .666-.222 1.185-.667 1.63zm-2.815-.37c.296.296.74.518 1.185.518.445 0 .89-.148 1.186-.518.296-.296.518-.74.518-1.26 0-.518-.148-.962-.518-1.259-.297-.296-.741-.518-1.186-.518-.444 0-.889.148-1.185.518a1.79 1.79 0 00-.518 1.26c0 .518.148.963.518 1.259zm4.815.963h-.593V5.185h1.482c.37 0 .667.149.963.37.296.223.444.593.444.964 0 .37-.148.666-.444.963-.296.222-.593.37-.963.37h-.963V9.63h.074zm0-2.37h.963a.841.841 0 00.593-.223.8.8 0 00.222-.518.8.8 0 00-.222-.519.841.841 0 00-.593-.222h-.963v1.481z" fill="#fff"/><path fill-rule="evenodd" clip-rule="evenodd" d="M32.593 5.185c-.648 0-1.147.215-1.578.645-.43.43-.645.93-.645 1.577 0 .648.215 1.147.645 1.578.43.43.93.645 1.578.645.647 0 1.146-.215 1.577-.645.43-.43.645-.93.645-1.578 0-.647-.215-1.146-.645-1.577-.43-.43-.93-.645-1.578-.645zm-1.683.54c.459-.458.996-.688 1.683-.688.686 0 1.223.23 1.681.688.459.459.689.996.689 1.682 0 .687-.23 1.224-.688 1.682-.459.459-.996.689-1.682.689-.687 0-1.224-.23-1.683-.689-.458-.458-.688-.995-.688-1.682 0-.686.23-1.223.688-1.682zm40.868-.54c-.647 0-1.147.215-1.578.645-.43.43-.645.93-.645 1.577 0 .648.215 1.147.645 1.578.431.43.93.645 1.578.645.647 0 1.146-.215 1.577-.645.43-.43.645-.93.645-1.578 0-.647-.215-1.146-.645-1.577-.43-.43-.93-.645-1.577-.645zm-1.682.54c.458-.458.995-.688 1.682-.688.686 0 1.223.23 1.682.688.458.459.688.996.688 1.682 0 .687-.23 1.224-.688 1.682-.459.459-.996.689-1.682.689-.687 0-1.224-.23-1.682-.689-.459-.458-.689-.995-.689-1.682 0-.686.23-1.223.689-1.682zM35.63 5.111h.782l2.032 3.295V5.11h.741v4.593h-.708l-2.107-3.44v3.44h-.74V5.112zm.148.148v4.297h.444V5.737l2.338 3.819h.477V5.259h-.444v3.669l-2.264-3.669h-.551zm3.926-.148h3.185v.667h-1.26v3.926h-.666V5.778h-1.26V5.11zm1.777 4.445h-.37V5.63h-1.26v-.37h2.89v.37h-1.26v3.926zm2.075-4.445h1.407c.682 0 1.295.227 1.682.614.462.463.614 1.003.614 1.682a2.52 2.52 0 01-.61 1.678l-.002.002-.002.002c-.463.463-1.003.615-1.682.615h-1.407V5.11zm.148.148v4.297h1.259c.653 0 1.149-.144 1.575-.569.359-.432.573-.933.573-1.58 0-.653-.144-1.15-.57-1.577-.354-.353-.926-.57-1.578-.57h-1.26zm4.222-.148h2.74v.667h-2v1.26h1.853v.666h-1.852v1.259h2v.74h-2.741V5.112zm.148.148v4.297h2.445V9.11h-2V7.556h1.851v-.37h-1.85V5.63h2v-.37h-2.445zm3.407-.148h.741v2.167l1.817-2.167h.935L53.28 7.115l1.827 2.589h-.848l-1.447-2.027-.589.72v1.307h-.74V5.11zm.149.148v4.297h.444V8.344l.745-.91 1.515 2.122h.486l-1.728-2.449 1.563-1.848h-.546l-2.035 2.426V5.26h-.444zm5.259-.148h.74v1.926h2.075V5.111h.74v4.593h-.74v-2H57.63v2h-.741V5.11zm.148.148v4.297h.444v-2h2.37v2h.445V5.259h-.444v1.926h-2.37V5.26h-.445zm4.296-.148h2.741v.667h-2v1.26h1.852v.666h-1.852v1.259h2v.74h-2.74V5.112zm.148.148v4.297h2.445V9.11h-2V7.556h1.852v-.37h-1.852V5.63h2v-.37H61.48zm2.963-.148h3.186v.667h-1.26v3.926h-.666V5.778h-1.26V5.11zm1.778 4.445h-.37V5.63h-1.26v-.37h2.89v.37h-1.26v3.926zm8.519-4.445h1.555c.393 0 .705.158 1.008.385.318.24.474.634.474 1.023 0 .394-.16.709-.466 1.015l-.004.004-.004.003c-.303.227-.615.385-1.008.385h-.889v1.778h-.666V5.11zm.518 4.445h-.37V5.259h1.407c.348 0 .629.139.919.356.274.205.415.551.415.904 0 .344-.136.622-.42.906-.288.216-.567.353-.914.353H75.26v1.778zM31.352 6.099c.314-.39.782-.543 1.24-.543.467 0 .928.23 1.235.537.392.315.543.784.543 1.314 0 .539-.23 1-.537 1.31-.314.39-.782.542-1.24.542-.467 0-.928-.23-1.235-.537-.392-.315-.543-.784-.543-1.315 0-.538.23-1 .537-1.308zm1.24-.395c-.428 0-.848.142-1.127.49l-.002.004-.003.003a1.71 1.71 0 00-.497 1.206c0 .505.144.924.49 1.202l.004.002.003.003c.285.285.711.497 1.133.497.428 0 .848-.143 1.127-.49l.002-.004.003-.003c.284-.283.497-.71.497-1.207 0-.504-.144-.923-.49-1.2l-.004-.003-.003-.003c-.285-.285-.711-.497-1.133-.497zm37.945.395c.314-.39.782-.543 1.24-.543.467 0 .928.23 1.235.537.392.315.543.784.543 1.314 0 .539-.23 1-.537 1.31-.314.39-.781.542-1.24.542-.466 0-.927-.23-1.235-.537-.391-.315-.543-.784-.543-1.315 0-.538.23-1 .537-1.308zm1.24-.395c-.428 0-.848.142-1.127.49l-.002.004-.003.003a1.71 1.71 0 00-.497 1.206c0 .505.144.924.49 1.202l.004.002.003.003c.285.285.711.497 1.133.497.429 0 .849-.143 1.127-.49l.003-.004.002-.003c.284-.283.497-.71.497-1.207 0-.504-.144-.923-.49-1.2l-.004-.003-.002-.003c-.285-.285-.712-.497-1.133-.497zM44.075 5.63h.889c.46 0 .924.153 1.237.466.315.314.467.78.467 1.311 0 .532-.152.998-.467 1.312-.312.312-.702.466-1.237.466h-.815v-.074h-.074V5.63zm.148 3.407h.74c.503 0 .853-.142 1.134-.423.278-.278.423-.701.423-1.207 0-.505-.145-.928-.423-1.206-.28-.28-.703-.423-1.133-.423h-.74v3.26zm31.111-3.333h1.037c.237 0 .48.079.645.244a.874.874 0 01.244.57.874.874 0 01-.244.571.915.915 0 01-.645.244h-1.037v-1.63zm.148.148v1.333h.89c.207 0 .408-.07.54-.2a.727.727 0 00.2-.466.727.727 0 00-.2-.467.768.768 0 00-.54-.2h-.89z" fill="#fff"/><defs><linearGradient id="paint0_linear" x1="16.148" y1="6.452" x2="3.716" y2="18.883" gradientUnits="userSpaceOnUse"><stop stop-color="#00A0FF"/><stop offset=".007" stop-color="#00A1FF"/><stop offset=".26" stop-color="#00BEFF"/><stop offset=".512" stop-color="#00D2FF"/><stop offset=".76" stop-color="#00DFFF"/><stop offset="1" stop-color="#00E3FF"/></linearGradient><linearGradient id="paint1_linear" x1="25.062" y1="14.816" x2="7.138" y2="14.816" gradientUnits="userSpaceOnUse"><stop stop-color="#FFE000"/><stop offset=".409" stop-color="#FFBD00"/><stop offset=".775" stop-color="orange"/><stop offset="1" stop-color="#FF9C00"/></linearGradient><linearGradient id="paint2_linear" x1="18.39" y1="16.515" x2="1.532" y2="33.373" gradientUnits="userSpaceOnUse"><stop stop-color="#FF3A44"/><stop offset="1" stop-color="#C31162"/></linearGradient><linearGradient id="paint3_linear" x1="5.405" y1=".131" x2="12.933" y2="7.659" gradientUnits="userSpaceOnUse"><stop stop-color="#32A071"/><stop offset=".069" stop-color="#2DA771"/><stop offset=".476" stop-color="#15CF74"/><stop offset=".801" stop-color="#06E775"/><stop offset="1" stop-color="#00F076"/></linearGradient></defs></svg>