<svg width="72" height="72" fill="none" xmlns="http://www.w3.org/2000/svg"><path d="M29.895 42.695l8.168-24.505a1.733 1.733 0 00-3.288-1.096L26.607 41.6a1.733 1.733 0 003.288 1.096zm12.242-7.602a5.204 5.204 0 005.198-5.198 5.204 5.204 0 00-5.198-5.199 5.204 5.204 0 00-5.199 5.199 5.204 5.204 0 005.199 5.198zm0-6.931c.955 0 1.733.777 1.733 1.733 0 .955-.778 1.732-1.733 1.732a1.735 1.735 0 01-1.733-1.732c0-.956.777-1.733 1.733-1.733zm-19.604-3.466a5.204 5.204 0 00-5.198 5.199 5.204 5.204 0 005.198 5.198 5.204 5.204 0 005.198-5.198 5.204 5.204 0 00-5.198-5.199zm0 6.931a1.735 1.735 0 01-1.733-1.732c0-.956.778-1.733 1.733-1.733.956 0 1.733.777 1.733 1.733 0 .955-.777 1.732-1.733 1.732z" fill="#00ECD0"/><path d="M71.578 26.156l-7.356-9.807.287-2.009a2.11 2.11 0 00-.596-1.79l-4.475-4.475 4.475-4.474A2.11 2.11 0 1060.93.618l-4.475 4.474L51.98.618A2.112 2.112 0 0050.19.02L29.31 3.004a2.11 2.11 0 00-1.194.597L2.262 29.454c-3.016 3.016-3.016 7.923 0 10.938L24.138 62.27c.447.447.937.827 1.456 1.141v.856c0 4.264 3.47 7.734 7.734 7.734h30.938C68.53 72 72 68.53 72 64.266V27.422c0-.457-.148-.9-.422-1.266zM5.245 37.41a3.52 3.52 0 010-4.972L30.6 7.08l19.142-2.734 3.729 3.729-2.983 2.983-1.492-1.492a2.11 2.11 0 00-2.983 2.983l5.966 5.966c.412.412.952.618 1.492.618s1.08-.206 1.491-.617a2.11 2.11 0 000-2.984l-1.491-1.491 2.983-2.983 3.729 3.729-2.735 19.141-25.356 25.357a3.492 3.492 0 01-2.486 1.03c-.94 0-1.822-.367-2.486-1.03L5.245 37.409zM67.78 64.266a3.52 3.52 0 01-3.515 3.515H33.328a3.52 3.52 0 01-3.505-3.256 7.704 7.704 0 005.253-2.256l25.853-25.854a2.11 2.11 0 00.597-1.193l1.852-12.967 4.403 5.87v36.14z" fill="#005FEC"/></svg>