<svg width="56" height="72" fill="none" xmlns="http://www.w3.org/2000/svg"><mask id="a" fill="#fff"><path d="M55.462 32.978a7.837 7.837 0 00-.719-4.88 7.843 7.843 0 00.718-4.879 7.838 7.838 0 00-2.343-4.339 7.836 7.836 0 00-.994-4.83 7.84 7.84 0 00-3.687-3.277 7.841 7.841 0 00-2.585-4.2 7.842 7.842 0 00-4.585-1.816A7.838 7.838 0 0037.4 1.695a7.839 7.839 0 00-4.93-.14A7.84 7.84 0 0027.79 0a7.84 7.84 0 00-4.68 1.555 7.84 7.84 0 00-4.93.14 7.845 7.845 0 00-3.867 3.062 7.844 7.844 0 00-4.585 1.817 7.84 7.84 0 00-2.585 4.2 7.84 7.84 0 00-3.687 3.275 7.839 7.839 0 00-.994 4.831A7.838 7.838 0 00.12 23.219a7.839 7.839 0 00.718 4.88 7.837 7.837 0 00-.718 4.879 7.838 7.838 0 002.343 4.34 7.84 7.84 0 00.994 4.83 7.842 7.842 0 003.687 3.275 7.847 7.847 0 001.463 3.04l-6.18 12.932a2.11 2.11 0 002.37 2.967l9.309-2.11 4.205 8.568A2.11 2.11 0 0020.204 72h.01a2.11 2.11 0 001.893-1.2l5.683-11.892L33.473 70.8a2.109 2.109 0 001.892 1.2h.011a2.11 2.11 0 001.894-1.18l4.205-8.569 9.308 2.111a2.11 2.11 0 002.37-2.967l-6.18-12.933a7.847 7.847 0 001.464-3.039 7.837 7.837 0 003.687-3.275 7.844 7.844 0 00.994-4.83 7.842 7.842 0 002.343-4.34zm-4.866-3.581c.63.806.888 1.844.711 2.848a3.618 3.618 0 01-1.642 2.434 2.11 2.11 0 00-.889 2.44 3.614 3.614 0 01-.306 2.92 3.615 3.615 0 01-2.375 1.724 2.11 2.11 0 00-1.67 1.99 3.617 3.617 0 01-1.286 2.638 3.614 3.614 0 01-2.822.809 2.109 2.109 0 00-2.248 1.298 3.614 3.614 0 01-2.112 2.04 3.616 3.616 0 01-2.928-.205 2.109 2.109 0 00-2.558.45 3.616 3.616 0 01-2.681 1.195 3.616 3.616 0 01-2.682-1.194 2.107 2.107 0 00-2.557-.451c-.902.48-1.97.554-2.928.205a3.617 3.617 0 01-2.112-2.04 2.11 2.11 0 00-2.248-1.298 3.616 3.616 0 01-2.823-.809 3.617 3.617 0 01-1.286-2.639 2.11 2.11 0 00-1.67-1.989A3.617 3.617 0 017.11 40.04a3.619 3.619 0 01-.306-2.92 2.11 2.11 0 00-.888-2.44 3.616 3.616 0 01-1.642-2.434 3.616 3.616 0 01.71-2.848 2.11 2.11 0 000-2.596 3.615 3.615 0 01-.71-2.85 3.615 3.615 0 011.642-2.433 2.11 2.11 0 00.888-2.44 3.619 3.619 0 01.306-2.92 3.616 3.616 0 012.376-1.724 2.11 2.11 0 001.669-1.99 3.617 3.617 0 011.286-2.638 3.616 3.616 0 012.823-.809A2.109 2.109 0 0017.51 7.7a3.618 3.618 0 012.111-2.04 3.613 3.613 0 012.929.205 2.11 2.11 0 002.557-.45 3.617 3.617 0 012.682-1.195c1.02 0 1.998.435 2.681 1.194a2.11 2.11 0 002.558.451 3.617 3.617 0 012.928-.205 3.614 3.614 0 012.111 2.04 2.11 2.11 0 002.25 1.298 3.617 3.617 0 012.822.809 3.616 3.616 0 011.286 2.639 2.11 2.11 0 001.67 1.989 3.61 3.61 0 012.681 4.645 2.11 2.11 0 00.888 2.44 3.616 3.616 0 011.642 2.433 3.615 3.615 0 01-.71 2.848 2.109 2.109 0 00-.001 2.597zm-9.813 28.371a2.11 2.11 0 00-2.36 1.128l-3.021 6.156-4.534-9.488a7.847 7.847 0 001.603-.922 7.84 7.84 0 004.93-.14 7.842 7.842 0 003.866-3.061 7.86 7.86 0 002.233-.462l3.97 8.306-6.687-1.517zm-23.625 1.128a2.11 2.11 0 00-2.36-1.128L8.11 59.284l3.969-8.306a7.877 7.877 0 002.233.463 7.84 7.84 0 003.867 3.061 7.84 7.84 0 004.93.14c.497.37 1.035.68 1.602.922l-4.534 9.487-3.02-6.155z"/></mask><path d="M55.462 32.978a7.837 7.837 0 00-.719-4.88 7.843 7.843 0 00.718-4.879 7.838 7.838 0 00-2.343-4.339 7.836 7.836 0 00-.994-4.83 7.84 7.84 0 00-3.687-3.277 7.841 7.841 0 00-2.585-4.2 7.842 7.842 0 00-4.585-1.816A7.838 7.838 0 0037.4 1.695a7.839 7.839 0 00-4.93-.14A7.84 7.84 0 0027.79 0a7.84 7.84 0 00-4.68 1.555 7.84 7.84 0 00-4.93.14 7.845 7.845 0 00-3.867 3.062 7.844 7.844 0 00-4.585 1.817 7.84 7.84 0 00-2.585 4.2 7.84 7.84 0 00-3.687 3.275 7.839 7.839 0 00-.994 4.831A7.838 7.838 0 00.12 23.219a7.839 7.839 0 00.718 4.88 7.837 7.837 0 00-.718 4.879 7.838 7.838 0 002.343 4.34 7.84 7.84 0 00.994 4.83 7.842 7.842 0 003.687 3.275 7.847 7.847 0 001.463 3.04l-6.18 12.932a2.11 2.11 0 002.37 2.967l9.309-2.11 4.205 8.568A2.11 2.11 0 0020.204 72h.01a2.11 2.11 0 001.893-1.2l5.683-11.892L33.473 70.8a2.109 2.109 0 001.892 1.2h.011a2.11 2.11 0 001.894-1.18l4.205-8.569 9.308 2.111a2.11 2.11 0 002.37-2.967l-6.18-12.933a7.847 7.847 0 001.464-3.039 7.837 7.837 0 003.687-3.275 7.844 7.844 0 00.994-4.83 7.842 7.842 0 002.343-4.34v0zm-4.866-3.581c.63.806.888 1.844.711 2.848a3.618 3.618 0 01-1.642 2.434 2.11 2.11 0 00-.889 2.44 3.614 3.614 0 01-.306 2.92 3.615 3.615 0 01-2.375 1.724 2.11 2.11 0 00-1.67 1.99 3.617 3.617 0 01-1.286 2.638 3.614 3.614 0 01-2.822.809 2.109 2.109 0 00-2.248 1.298 3.614 3.614 0 01-2.112 2.04 3.616 3.616 0 01-2.928-.205 2.109 2.109 0 00-2.558.45 3.616 3.616 0 01-2.681 1.195 3.616 3.616 0 01-2.682-1.194 2.107 2.107 0 00-2.557-.451c-.902.48-1.97.554-2.928.205a3.617 3.617 0 01-2.112-2.04 2.11 2.11 0 00-2.248-1.298 3.616 3.616 0 01-2.823-.809 3.617 3.617 0 01-1.286-2.639 2.11 2.11 0 00-1.67-1.989A3.617 3.617 0 017.11 40.04a3.619 3.619 0 01-.306-2.92 2.11 2.11 0 00-.888-2.44 3.616 3.616 0 01-1.642-2.434 3.616 3.616 0 01.71-2.848 2.11 2.11 0 000-2.596 3.615 3.615 0 01-.71-2.85 3.615 3.615 0 011.642-2.433 2.11 2.11 0 00.888-2.44 3.619 3.619 0 01.306-2.92 3.616 3.616 0 012.376-1.724 2.11 2.11 0 001.669-1.99 3.617 3.617 0 011.286-2.638 3.616 3.616 0 012.823-.809A2.109 2.109 0 0017.51 7.7a3.618 3.618 0 012.111-2.04 3.613 3.613 0 012.929.205 2.11 2.11 0 002.557-.45 3.617 3.617 0 012.682-1.195c1.02 0 1.998.435 2.681 1.194a2.11 2.11 0 002.558.451 3.617 3.617 0 012.928-.205 3.614 3.614 0 012.111 2.04 2.11 2.11 0 002.25 1.298 3.617 3.617 0 012.822.809 3.616 3.616 0 011.286 2.639 2.11 2.11 0 001.67 1.989 3.61 3.61 0 012.681 4.645 2.11 2.11 0 00.888 2.44 3.616 3.616 0 011.642 2.433 3.615 3.615 0 01-.71 2.848 2.109 2.109 0 00-.001 2.597zm-9.813 28.371a2.11 2.11 0 00-2.36 1.128l-3.021 6.156-4.534-9.488a7.847 7.847 0 001.603-.922 7.84 7.84 0 004.93-.14 7.842 7.842 0 003.866-3.061 7.86 7.86 0 002.233-.462l3.97 8.306-6.687-1.517zm-23.625 1.128a2.11 2.11 0 00-2.36-1.128L8.11 59.284l3.969-8.306a7.877 7.877 0 002.233.463 7.84 7.84 0 003.867 3.061 7.84 7.84 0 004.93.14c.497.37 1.035.68 1.602.922l-4.534 9.487-3.02-6.155z" fill="#005FEC" stroke="#fff" mask="url(#a)"/><path d="M25.473 32.876l.177.176.176-.176 10.438-10.438a2.629 2.629 0 013.716 3.717L27.508 38.628a2.63 2.63 0 01-3.717 0l-7.771-7.772h0a2.627 2.627 0 010-3.716h0a2.627 2.627 0 013.716 0h0l5.737 5.736z" fill="#00ECD0" stroke="#fff" stroke-width=".5"/></svg>