<svg width="72" height="72" fill="none" xmlns="http://www.w3.org/2000/svg"><path d="M59.812 44.9a28.825 28.825 0 004.762-15.903C64.574 13.007 51.566 0 35.577 0S6.58 13.008 6.58 28.997A28.829 28.829 0 0011.342 44.9L0 61.44l12.979-2.42L15.399 72l10.696-15.6a28.87 28.87 0 009.482 1.593c3.32 0 6.51-.561 9.482-1.593L55.756 72l2.42-12.979 12.978 2.42L59.812 44.9zm-42.12 16.25l-1.32-7.08-7.079 1.321 4.777-6.967a29.186 29.186 0 008.06 6.256l-4.438 6.47zm-6.868-32.154c0-13.65 11.104-24.754 24.753-24.754 13.65 0 24.754 11.105 24.754 24.754 0 13.65-11.105 24.754-24.754 24.754-13.649 0-24.753-11.105-24.753-24.754zM54.782 54.07l-1.32 7.08-4.437-6.47a29.186 29.186 0 008.06-6.256l4.776 6.966-7.08-1.32z" fill="#005FEC"/><path d="M30.408 34.365l-6.9-6.899-3 3 9.9 9.9 20.239-20.238-3-3-17.239 17.237z" fill="#00ECD0"/></svg>